<?xml version="1.0" encoding="iso-8859-1"?>
<!-- Generator: Adobe Illustrator 19.0.0, SVG Export Plug-In . SVG Version: 6.00 Build 0)  -->
<svg version="1.1" id="Capa_1" xmlns="http://www.w3.org/2000/svg" xmlns:xlink="http://www.w3.org/1999/xlink" x="0px" y="0px"
	 viewBox="0 0 512.003 512.003" style="enable-background:new 0 0 512.003 512.003;" xml:space="preserve">
<g>
	<g>
		<path d="M487.636,157.652c-0.032-0.108-0.076-0.211-0.113-0.316c-2.513-30.814-16.044-59.507-38.234-81.073
			c11.663-6.439,21.387-14.477,29.003-23.997c17.475-21.843,17.676-43.84,17.676-44.766c0-2.599-1.346-5.013-3.557-6.38
			c-2.213-1.367-4.974-1.49-7.298-0.328c-19.888,9.944-46.494,11.719-74.663,13.598c-18.105,1.208-36.581,2.444-54.658,5.811
			C324.193,6.807,290.633,0,256.002,0c-34.626,0-68.195,6.803-99.802,20.199c-18.074-3.366-36.547-4.602-54.649-5.809
			c-28.169-1.879-54.775-3.654-74.663-13.598c-2.324-1.162-5.085-1.039-7.297,0.328c-2.211,1.367-3.557,3.781-3.557,6.38
			c0,0.926,0.201,22.922,17.676,44.766c7.616,9.52,17.34,17.558,29.004,23.997C40.516,97.828,26.99,126.5,24.479,157.335
			c-0.037,0.106-0.08,0.208-0.113,0.316c-0.995,3.316-24.365,81.593-24.365,114.381c0,4.142,3.357,7.5,7.5,7.5H24.05v16.548
			c0,3.441,2.342,6.441,5.681,7.276c1.049,0.262,11.333,2.763,27.345,4.308c4.742,48.689,27.105,93.745,63.202,127.146
			c14.39,13.316,30.472,24.294,47.713,32.757l-54.385,4.532c-9.394,0.783-17.389,7.067-20.37,16.01l-4.673,14.019
			c-1.31,3.93,0.814,8.177,4.743,9.487c0.787,0.262,1.587,0.387,2.373,0.387c3.14,0,6.066-1.988,7.114-5.13l4.673-14.019
			c1.081-3.243,3.979-5.521,7.386-5.805l5.391-0.449V504.5c0,4.142,3.357,7.5,7.5,7.5c4.143,0,7.5-3.358,7.5-7.5v-19.151
			l9.997-0.833l7.453,22.357c1.048,3.143,3.975,5.13,7.114,5.13c0.786,0,1.586-0.125,2.373-0.387c3.93-1.31,6.053-5.558,4.743-9.487
			l-6.299-18.894l39.297-3.275c18.039,5.26,36.893,7.993,56.08,7.993c19.187,0,38.041-2.732,56.08-7.993l39.297,3.275l-6.299,18.894
			c-1.31,3.93,0.813,8.177,4.743,9.487c0.787,0.262,1.587,0.387,2.373,0.387c3.14,0,6.066-1.988,7.114-5.13l7.453-22.357
			l9.997,0.833V504.5c0,4.142,3.357,7.5,7.5,7.5s7.5-3.358,7.5-7.5v-17.901l5.391,0.449c3.406,0.284,6.305,2.563,7.386,5.805
			l4.673,14.019c1.048,3.143,3.974,5.13,7.114,5.13c0.786,0,1.586-0.125,2.373-0.387c3.929-1.31,6.053-5.557,4.743-9.487
			l-4.673-14.02c-2.981-8.942-10.977-15.226-20.37-16.009l-54.385-4.532c17.241-8.463,33.323-19.441,47.713-32.757
			c36.097-33.401,58.461-78.457,63.202-127.147c16.011-1.545,26.297-4.045,27.345-4.307c3.339-0.834,5.681-3.834,5.681-7.276
			v-16.548h16.549c4.143,0,7.5-3.358,7.5-7.5C512.001,239.244,488.632,160.968,487.636,157.652z M256.002,15
			c25.537,0,50.448,3.934,74.339,11.688c-3.206,1.075-6.387,2.249-9.537,3.547c-28.425,11.716-49.738,31.452-64.802,60.075
			c-15.064-28.624-36.377-48.359-64.802-60.075c-3.148-1.298-6.328-2.471-9.533-3.546C205.558,18.937,230.471,15,256.002,15z
			 M77.406,83.112c9.397,3.681,19.772,6.526,31.066,8.523c-26.462,15.106-44.341,43.597-44.341,76.187
			c0,48.336,39.324,87.661,87.661,87.661c48.337,0,87.661-39.325,87.661-87.661c0-48.337-39.324-87.662-87.661-87.662
			c-49.576,0-86.16-12.642-105.797-36.56c-7.08-8.623-10.811-17.337-12.776-24.044c19.963,6.64,43.101,8.183,67.335,9.799
			c58.074,3.874,118.127,7.879,148.516,81.511c1.194,2.893,3.988,4.641,6.936,4.641c0.953,0,1.923-0.183,2.858-0.569
			c1.921-0.793,3.336-2.292,4.071-4.072h0.001c30.389-73.632,90.441-77.638,148.516-81.511c24.234-1.617,47.37-3.159,67.334-9.799
			c-1.967,6.71-5.697,15.423-12.775,24.043c-19.637,23.918-56.221,36.56-105.797,36.56c-48.337,0-87.661,39.325-87.661,87.662
			c0,48.336,39.324,87.661,87.661,87.661c48.337,0,87.661-39.325,87.661-87.661c0-13.401-2.947-26.267-8.76-38.239
			c-1.809-3.725-6.296-5.28-10.022-3.472c-3.727,1.809-5.28,6.296-3.472,10.022c4.813,9.915,7.254,20.576,7.254,31.688
			c0,40.065-32.596,72.661-72.661,72.661s-72.661-32.596-72.661-72.661c0-40.066,32.596-72.662,72.661-72.662
			c15.873,0,30.95,5.024,43.602,14.53c3.311,2.49,8.013,1.821,10.501-1.491c2.488-3.312,1.82-8.013-1.491-10.501
			c-2.972-2.233-6.058-4.255-9.237-6.073c11.275-1.997,21.633-4.84,31.017-8.516c24.415,21.446,38.35,52.118,38.35,84.713
			c0,62.166-50.575,112.742-112.741,112.742c-28.456,0-55.362-10.549-76.209-29.777l3.07-8.187c1.032-2.753,0.36-5.857-1.719-7.937
			l-12.713-12.712c-9.176-9.174-24.104-9.174-33.28,0l-12.712,12.712c-2.079,2.08-2.751,5.183-1.719,7.937l3.07,8.187
			c-20.847,19.23-47.74,29.776-76.209,29.776c-62.166,0-112.741-50.576-112.741-112.742C39.05,135.199,52.982,104.558,77.406,83.112
			z M151.792,95.161c40.065,0,72.661,32.596,72.661,72.662c0,40.065-32.596,72.661-72.661,72.661s-72.661-32.596-72.661-72.661
			C79.131,127.757,111.727,95.161,151.792,95.161z M271.333,241.857l-15.331,40.881l-15.331-40.882l9.297-9.296
			c3.328-3.326,8.741-3.326,12.067,0L271.333,241.857z M39.05,289.972v-17.94c0-4.142-3.358-7.5-7.5-7.5H15.365
			c1.498-17.269,7.363-42.985,12.842-64.349c11.549,44.073,46.108,78.923,90.009,90.895
			C82.516,296.577,51.411,292.248,39.05,289.972z M256.001,472.951c-26.386,0-51.482-11.768-72.577-34.031
			c-20.886-22.041-36.337-53.379-43.507-88.242c-0.835-4.057-4.803-6.667-8.857-5.835c-4.058,0.834-6.67,4.8-5.836,8.857
			c7.727,37.564,24.529,71.493,47.312,95.537c2.487,2.624,5.029,5.113,7.616,7.48c-18.056-8.125-34.842-19.181-49.687-32.917
			c-32.778-30.329-53.315-71.04-58.206-115.116c3.234,0.124,6.598,0.196,10.088,0.196c11.541,0,24.387-0.766,37.912-2.864
			c0.037,4.876,0.207,9.777,0.522,14.602c0.26,3.966,3.559,7.01,7.477,7.01c0.165,0,0.331-0.005,0.498-0.017
			c4.133-0.271,7.265-3.841,6.994-7.974c-0.337-5.132-0.507-10.361-0.507-15.541c0-0.31,0.006-0.62,0.008-0.93
			c8.896-2.005,17.973-4.631,27.075-8.038c26.332-2.145,51.059-12.315,71.307-29.32l15.346,40.921
			c1.098,2.927,3.896,4.867,7.022,4.867s5.925-1.939,7.022-4.867l15.346-40.921c20.249,17.003,44.983,27.172,71.306,29.319
			c9.103,3.407,18.181,6.034,27.076,8.039c0.001,0.31,0.008,0.62,0.008,0.93C376.759,397.203,322.587,472.951,256.001,472.951z
			 M381.537,423.801c-14.814,13.708-31.563,24.746-49.577,32.866c7.41-6.79,14.376-14.627,20.799-23.458
			c24.818-34.125,38.623-79.23,38.983-127.193c13.525,2.098,26.371,2.863,37.914,2.863c3.49,0,6.854-0.072,10.088-0.196
			C434.852,352.76,414.315,393.471,381.537,423.801z M480.453,264.532c-4.143,0-7.5,3.358-7.5,7.5v17.948
			c-12.356,2.29-43.443,6.642-79.205,1.108c43.919-11.962,78.495-46.82,90.048-90.905c5.479,21.364,11.343,47.081,12.842,64.349
			H480.453z"/>
	</g>
</g>
<g>
	<g>
		<path d="M151.792,120.242c-21.815,0-39.564,17.749-39.564,39.565v16.032c0,21.816,17.749,39.564,39.564,39.564
			s39.564-17.749,39.564-39.564v-16.032C191.355,137.991,173.607,120.242,151.792,120.242z M176.355,175.839
			c0,13.545-11.02,24.564-24.564,24.564s-24.564-11.02-24.564-24.564v-16.032c0-13.545,11.02-24.565,24.564-24.565
			s24.564,11.02,24.564,24.565V175.839z"/>
	</g>
</g>
<g>
	<g>
		<path d="M360.211,120.242c-21.815,0-39.564,17.749-39.564,39.565v16.032c0,21.816,17.749,39.564,39.564,39.564
			s39.564-17.749,39.564-39.564v-16.032C399.776,137.99,382.026,120.242,360.211,120.242z M384.776,175.839
			c0,13.545-11.02,24.564-24.564,24.564s-24.564-11.02-24.564-24.564v-16.032c0-13.545,11.02-24.565,24.564-24.565
			s24.564,11.02,24.564,24.565V175.839z"/>
	</g>
</g>
<g>
	<g>
		<path d="M151.792,152.307c-4.143,0-7.5,3.358-7.5,7.5v16.032c0,4.142,3.358,7.5,7.5,7.5c4.143,0,7.5-3.358,7.5-7.5v-16.032
			C159.292,155.665,155.935,152.307,151.792,152.307z"/>
	</g>
</g>
<g>
	<g>
		<path d="M360.211,152.307c-4.143,0-7.5,3.358-7.5,7.5v16.032c0,4.142,3.357,7.5,7.5,7.5s7.5-3.358,7.5-7.5v-16.032
			C367.711,155.665,364.354,152.307,360.211,152.307z"/>
	</g>
</g>
<g>
</g>
<g>
</g>
<g>
</g>
<g>
</g>
<g>
</g>
<g>
</g>
<g>
</g>
<g>
</g>
<g>
</g>
<g>
</g>
<g>
</g>
<g>
</g>
<g>
</g>
<g>
</g>
<g>
</g>
</svg>
